<svg width="16" height="16" viewBox="0 0 16 16" fill="none" xmlns="http://www.w3.org/2000/svg">
<path d="M7.35 15C5.9125 15 4.825 14.7418 4.0875 14.2255C3.3625 13.7091 3 13.0378 3 12.2116C3 11.8114 3.10625 11.4952 3.31875 11.2628C3.53125 11.0175 3.86875 10.8949 4.33125 10.8949C4.40625 10.8949 4.55625 10.9078 4.78125 10.9336C4.74375 11.0627 4.725 11.2112 4.725 11.379C4.725 11.4693 4.7375 11.6307 4.7625 11.8631C4.8375 12.5214 5.11875 13.0701 5.60625 13.509C6.09375 13.9479 6.7625 14.1674 7.6125 14.1674C8.3125 14.1674 8.88125 13.9866 9.31875 13.6252C9.75625 13.2508 9.975 12.7151 9.975 12.018C9.975 11.5533 9.875 11.1531 9.675 10.8174C9.475 10.4689 9.18125 10.1526 8.79375 9.8686C8.41875 9.5846 7.89375 9.24251 7.21875 8.84232C6.31875 8.32596 5.6125 7.87414 5.1 7.48686C4.6 7.08668 4.2 6.63486 3.9 6.1314C3.6125 5.62794 3.46875 5.02766 3.46875 4.33057C3.46875 3.20747 3.8625 2.37483 4.65 1.83264C5.45 1.27755 6.46875 1 7.70625 1C8.88125 1 9.81875 1.20655 10.5188 1.61964C11.2312 2.01983 11.5875 2.58783 11.5875 3.32365C11.5875 3.99493 11.2375 4.34993 10.5375 4.38866C10.4875 4.40157 10.4125 4.40802 10.3125 4.40802C10.2125 4.40802 10.075 4.39511 9.9 4.36929C9.9125 4.30475 9.91875 4.22084 9.91875 4.11757C9.91875 3.82065 9.875 3.57538 9.7875 3.38174C9.7125 2.9041 9.475 2.52328 9.075 2.23928C8.675 1.95528 8.14375 1.81328 7.48125 1.81328C6.91875 1.81328 6.43125 1.95528 6.01875 2.23928C5.61875 2.51037 5.41875 2.96219 5.41875 3.59474C5.41875 4.2402 5.63125 4.78884 6.05625 5.24066C6.49375 5.69249 7.2625 6.22822 8.3625 6.84786C9.125 7.28677 9.75625 7.69986 10.2562 8.08714C10.7687 8.47441 11.1875 8.93914 11.5125 9.48133C11.8375 10.0106 12 10.6238 12 11.3209C12 11.9922 11.8312 12.6053 11.4937 13.1604C11.1687 13.7155 10.6563 14.1609 9.95625 14.4965C9.25625 14.8322 8.3875 15 7.35 15Z" fill="#7F58A7"/>
</svg>
